<?xml version="1.0" encoding="UTF-8"?>
<svg width="1163px" height="240px" viewBox="0 0 1163 240" version="1.1" xmlns="http://www.w3.org/2000/svg" xmlns:xlink="http://www.w3.org/1999/xlink" style="background: rgba(0, 0, 0, 0);">
    <!-- Generator: Sketch 41.2 (35397) - http://www.bohemiancoding.com/sketch -->
    <title>Artboard 3</title>
    <desc>Created with Sketch.</desc>
    <defs></defs>
    <g id="Page-1" stroke="none" stroke-width="1" fill="none" fill-rule="evenodd">
        <g id="Artboard-3">
            <g id="Group" transform="translate(0.000000, 4.000000)">
                <path d="M334.327896,179.899476 C373.961511,179.899476 395.864298,158.781581 408.380177,137.142257 L376.568986,121.760087 C369.268057,136.099398 353.623209,147.049418 334.327896,147.049418 C304.08119,147.049418 281.135413,122.802946 281.135413,89.952888 C281.135413,57.1028299 304.08119,32.8563585 334.327896,32.8563585 C353.623209,32.8563585 369.268057,44.0670926 376.568986,58.1456889 L408.380177,42.5028041 C396.125046,20.8634801 373.961511,0.00630039014 334.327896,0.00630039014 C283.48214,0.00630039014 243.066283,36.5063649 243.066283,89.952888 C243.066283,143.399411 283.48214,179.899476 334.327896,179.899476 Z M491.428245,179.899476 C533.14784,179.899476 558.179597,149.656565 558.179597,113.67793 C558.179597,77.9600097 533.14784,47.7170991 491.428245,47.7170991 C449.969398,47.7170991 424.937641,77.9600097 424.937641,113.67793 C424.937641,149.656565 449.969398,179.899476 491.428245,179.899476 Z M491.428245,150.438709 C470.829195,150.438709 459.356307,133.492251 459.356307,113.67793 C459.356307,94.124324 470.829195,77.1778654 491.428245,77.1778654 C512.027295,77.1778654 523.760931,94.124324 523.760931,113.67793 C523.760931,133.492251 512.027295,150.438709 491.428245,150.438709 Z M664.694937,176.770899 L697.809865,176.770899 L697.809865,87.3457406 C697.809865,62.8385544 684.511744,47.7170991 656.872513,47.7170991 C636.273463,47.7170991 620.628615,57.6242594 612.545444,67.2707051 L612.545444,2.8741626 L579.430515,2.8741626 L579.430515,176.770899 L612.545444,176.770899 L612.545444,92.038606 C618.281888,84.4778783 628.451039,77.1778654 641.227665,77.1778654 C655.568776,77.1778654 664.694937,82.6528751 664.694937,100.120763 L664.694937,176.770899 Z M782.552792,179.899476 C824.272387,179.899476 849.304144,149.656565 849.304144,113.67793 C849.304144,77.9600097 824.272387,47.7170991 782.552792,47.7170991 C741.093945,47.7170991 716.062188,77.9600097 716.062188,113.67793 C716.062188,149.656565 741.093945,179.899476 782.552792,179.899476 Z M784.182464,150.438709 C763.583414,150.438709 752.110525,133.492251 752.110525,113.67793 C752.110525,94.124324 763.583414,77.1778654 784.182464,77.1778654 C804.781514,77.1778654 816.51515,94.124324 816.51515,113.67793 C816.51515,133.492251 804.781514,150.438709 784.182464,150.438709 Z M865.666047,176.770899 L898.780975,176.770899 L898.780975,93.6028945 C904.256672,85.5207373 918.85853,79.2635834 929.809924,79.2635834 C933.460389,79.2635834 936.589358,79.7850129 938.936085,80.3064424 L938.936085,47.9778138 C923.291237,47.9778138 907.646389,56.8421152 898.780975,68.0528493 L898.780975,50.845676 L865.666047,50.845676 L865.666047,176.770899 Z M1013.18393,179.899476 C1027.00354,179.899476 1035.86896,176.249469 1040.82316,171.817319 L1033.78298,146.788703 C1031.95774,148.613706 1027.26429,150.438709 1022.31009,150.438709 C1015.00916,150.438709 1010.8372,144.44227 1010.8372,136.620828 L1010.8372,79.7850129 L1036.39045,79.7850129 L1036.39045,50.845676 L1010.8372,50.845676 L1010.8372,16.4313294 L977.461524,16.4313294 L977.461524,50.845676 L956.601726,50.845676 L956.601726,79.7850129 L977.461524,79.7850129 L977.461524,145.485129 C977.461524,167.906597 989.977402,179.899476 1013.18393,179.899476 Z M1051.38343,160.34587 C1064.68155,172.599463 1085.8021,179.899476 1107.70488,179.899476 C1142.64504,179.899476 1162.2011,162.431588 1162.2011,139.48869 C1162.2011,108.20292 1133.25814,102.467196 1111.6161,98.2957599 C1097.53573,95.4278977 1087.62733,92.5600355 1087.62733,84.7385931 C1087.62733,77.4385802 1095.44975,73.0064295 1107.44414,73.0064295 C1122.82824,73.0064295 1137.16935,79.5242982 1144.73102,87.6064553 L1158.02914,64.9242723 C1145.51327,55.017112 1128.56468,47.7170991 1107.18339,47.7170991 C1074.06846,47.7170991 1055.55539,66.2278461 1055.55539,87.3457406 C1055.55539,117.327936 1083.45537,122.542231 1105.09741,126.713667 C1119.43852,129.58153 1130.38991,132.710107 1130.38991,141.574408 C1130.38991,149.39585 1123.61048,154.34943 1109.26937,154.34943 C1093.62452,154.34943 1074.8507,145.745844 1065.72454,137.142257 L1051.38343,160.34587 Z" id="Cohorts" fill="#31B67B"></path>
                <text id="from-Ad-Hoc" opacity="0" font-family="ProximaNova-Bold, Proxima Nova" font-size="50" font-weight="bold" fill="#9B9B9B">
                    <tspan x="247.955298" y="235.765557">from Ad Hoc</tspan>
                </text>
                <path d="M150.847525,8.15363623 L195.589486,8.15363623 L195.589486,53.0931171 L150.847525,53.0931171 L150.847525,8.15363623 Z M120.157148,8.15363623 L0.289338345,8.15363623 L0.289338345,181.147713 L70.5900454,181.147713 L70.5900454,230.953037 L119.962413,181.147713 L195.589486,181.147713 L195.589486,83.7834944 L150.847525,83.7834944 L150.847525,128.730541 L120.157148,128.730541 L120.157148,83.7834944 L75.2101009,83.7834944 L75.2101009,53.0931171 L120.157148,53.0931171 L120.157148,8.15363623 Z" id="Combined-Shape" fill="#31B67B"></path>
            </g>
        </g>
    </g>
</svg>
